<svg xmlns="http://www.w3.org/2000/svg" width="16" height="20" viewBox="0 0 16 20"><path fill="#333" d="M4.697 7.45c.4 0 .726-.328.726-.727V5.266h5.214v1.457c0 .4.327.726.726.726.4 0 .727-.327.727-.726V5.266h1.456l1.062 11.944c-.016.723-.767 1.312-1.675 1.312H3.127c-.908 0-1.654-.59-1.674-1.316l1.061-11.94h1.457v1.457c0 .4.327.726.726.726zm.739-3.637a2.611 2.611 0 0 1 2.594-2.36 2.611 2.611 0 0 1 2.595 2.36zm9.503.662a.72.72 0 0 0-.727-.662h-2.13A4.07 4.07 0 0 0 8.03 0a4.07 4.07 0 0 0-4.05 3.813H1.85a.728.728 0 0 0-.727.662L0 17.118v.064c0 1.542 1.404 2.797 3.127 2.797h9.806c1.723 0 3.127-1.255 3.127-2.797v-.056z"/></svg>