<svg xmlns="http://www.w3.org/2000/svg" width="22" height="14" viewBox="0 0 22 14"><path fill="#fff" d="M20.35 7.011c-1.13 1.371-4.945 5.561-9.35 5.561-4.415 0-8.223-4.188-9.35-5.56 1.129-1.37 4.944-5.56 9.35-5.56 4.415 0 8.223 4.188 9.35 5.56zm1.51.429a.725.725 0 0 0 0-.856C21.664 6.315 16.98 0 11 0 5.019 0 .336 6.315.14 6.584a.726.726 0 0 0 0 .856c.196.269 4.879 6.583 10.86 6.583 5.98 0 10.664-6.314 10.86-6.583z"/><path fill="#fff" d="M13.901 7.012c0 1.6-1.301 2.9-2.901 2.9a2.904 2.904 0 0 1-2.901-2.9c0-1.6 1.301-2.901 2.9-2.901 1.6 0 2.902 1.301 2.902 2.9zm1.45 0c0-2.4-1.952-4.352-4.351-4.352a4.357 4.357 0 0 0-4.352 4.352c0 2.4 1.952 4.351 4.352 4.351 2.4 0 4.352-1.952 4.352-4.351z"/></svg>