<svg xmlns="http://www.w3.org/2000/svg" width="12" height="11" viewBox="0 0 12 11"><path d="M6.051 3.28a2.274 2.274 0 0 0-2.27 2.271 2.274 2.274 0 0 0 2.27 2.271 2.274 2.274 0 0 0 2.271-2.27 2.274 2.274 0 0 0-2.27-2.272zm0-.504A2.777 2.777 0 0 1 8.827 5.55a2.777 2.777 0 0 1-2.776 2.776A2.777 2.777 0 0 1 3.276 5.55 2.777 2.777 0 0 1 6.05 2.776zm3.028-.757c.278 0 .505.227.505.504a.506.506 0 0 1-.505.505.506.506 0 0 1-.504-.505c0-.277.227-.504.504-.504zM3.78 0A3.284 3.284 0 0 0 .5 3.28v4.542c0 1.81 1.471 3.28 3.28 3.28h4.542c1.81 0 3.28-1.47 3.28-3.28V3.28c0-1.809-1.47-3.28-3.28-3.28z"/></svg>