<svg xmlns="http://www.w3.org/2000/svg" width="165" height="18.32" viewBox="0 0 165 18.32"><g data-name="Layer 2"><g data-name="Layer 1" fill="#333"><path data-name="Path 39" d="M18.193 9.666c0 5.385-3.748 8.655-8.681 8.655A9.163 9.163 0 1 1 9.232.005a9.047 9.047 0 0 1 7.7 4.024l-3.418 1.962a5.044 5.044 0 0 0-4.308-2.064 5.053 5.053 0 0 0-5.17 5.286c0 3.016 2.115 5.17 5.54 5.17 2.339 0 3.877-1.034 4.5-2.718H9.361V8.154h8.832z"/><path data-name="Path 40" d="M39.681 14.697v3.27h-13.63V.364h13.3v3.27h-9.25v3.821h8.18v3.169h-8.18v4.071z"/><path data-name="Path 41" d="M63.974 17.967l-.022-10.563-5.17 8.7h-1.835l-5.17-8.474v10.341h-3.82V.364h3.369l6.587 10.938L64.405.364h3.343l.047 17.6z"/><path data-name="Path 42" d="M117.438.364v17.6h-3.343L105.32 7.278v10.689h-4.024V.364h3.39l8.75 10.688V.364z"/><path data-name="Path 43" d="M143.502 9.665c0 5.385-3.748 8.655-8.681 8.655a9.163 9.163 0 1 1-.276-18.315 9.017 9.017 0 0 1 7.7 4.024l-3.421 1.964a5.286 5.286 0 0 0-9.478 3.222c0 3.016 2.111 5.17 5.536 5.17 2.339 0 3.877-1.034 4.5-2.718h-4.713V8.153h8.832z"/><path data-name="Path 44" d="M165 14.697v3.27h-13.635V.364h13.3v3.27h-9.25v3.821h8.185v3.169h-8.185v4.071z"/><path data-name="Path 45" d="M77.735 11.134l-3.046 6.833h4.175l1.56-3.77h8.172l1.56 3.77h4.274l-3.054-6.833z"/><path data-name="Path 46" d="M83.009 8.011l1.512-3.649 1.512 3.649h3.946L86.557.364h-4.024l-3.406 7.647z"/></g></g></svg>