<svg xmlns="http://www.w3.org/2000/svg" width="165" height="19" viewBox="0 0 165 19"><path fill="#fff" d="M18.193 9.665c0 5.385-3.748 8.655-8.68 8.655C3.976 18.32 0 14.245 0 9.187A9.133 9.133 0 0 1 9.232.002a9.047 9.047 0 0 1 7.703 4.024l-3.42 1.964c-.733-1.159-2.318-2.063-4.308-2.063-2.969 0-5.17 2.188-5.17 5.286 0 3.015 2.115 5.17 5.54 5.17 2.34 0 3.877-1.035 4.502-2.719H9.362V8.153h8.831zm21.489 5.032v3.27h-13.63V.364h13.303v3.27H30.1v3.821h8.185v3.17H30.1v4.072zm24.293 3.27l-.021-10.564-5.17 8.703h-1.835l-5.17-8.474V17.97h-3.821V.364h3.369l6.587 10.938L64.406.364h3.343l.048 17.603zM117.439.364v17.603h-3.343L105.32 7.278v10.689h-4.024V.364h3.39l8.75 10.688V.364zm26.064 9.301c0 5.385-3.748 8.655-8.681 8.655-5.536 0-9.512-4.075-9.512-9.133a9.137 9.137 0 0 1 9.236-9.185 9.017 9.017 0 0 1 7.699 4.024l-3.421 1.964c-.732-1.159-2.318-2.063-4.308-2.063-2.968 0-5.17 2.188-5.17 5.286 0 3.015 2.111 5.17 5.536 5.17 2.34 0 3.877-1.035 4.502-2.719h-4.713V8.153h8.832zM165 14.697v3.27h-13.635V.364h13.303v3.27h-9.258v3.821h8.186v3.17h-8.186v4.072zm-87.265-3.563l-3.046 6.833h4.175l1.56-3.77h8.172l1.56 3.77h4.273l-3.054-6.833zm5.273-3.124l1.513-3.648 1.512 3.649h3.946L86.559.364h-4.024L79.127 8.01z"/></svg>