<svg xmlns="http://www.w3.org/2000/svg" width="18" height="18" viewBox="0 0 18 18"><path fill="#fff" d="M7.627 13.798a6.178 6.178 0 0 1-6.172-6.171 6.178 6.178 0 0 1 6.172-6.172 6.178 6.178 0 0 1 6.171 6.172 6.178 6.178 0 0 1-6.171 6.171zM13.02 2.234A7.577 7.577 0 0 0 7.627 0a7.577 7.577 0 0 0-5.393 2.234A7.577 7.577 0 0 0 0 7.627c0 2.037.793 3.952 2.234 5.393a7.577 7.577 0 0 0 5.393 2.234 7.577 7.577 0 0 0 5.393-2.234 7.577 7.577 0 0 0 2.234-5.393 7.577 7.577 0 0 0-2.234-5.393z"/><path fill="#fff" d="M17.8 16.771l-4.783-4.783a.728.728 0 1 0-1.03 1.029l4.784 4.783a.725.725 0 0 0 1.03 0 .728.728 0 0 0 0-1.029z"/></svg>