<svg xmlns="http://www.w3.org/2000/svg" width="16" height="16" viewBox="0 0 16 16"><path fill="#333" d="M8.034 9.88C3.53 9.88 0 11.969 0 14.634v.82a.65.65 0 0 0 1.301 0v-.82c0-1.87 3.084-3.451 6.733-3.451 3.65 0 6.734 1.58 6.734 3.451v.82a.65.65 0 1 0 1.3 0v-.82c0-2.665-3.528-4.752-8.034-4.752zm.422-3.345a2.614 2.614 0 0 1-1.954-.49 2.614 2.614 0 0 1-1.035-1.727A2.634 2.634 0 0 1 8.456 1.33a2.616 2.616 0 0 1 2.217 2.216 2.634 2.634 0 0 1-2.217 2.989zm3.504-3.18a3.905 3.905 0 0 0-1.11-2.203A3.93 3.93 0 0 0 7.493.042 3.937 3.937 0 0 0 4.18 4.51a3.906 3.906 0 0 0 1.547 2.582 3.903 3.903 0 0 0 2.92.73 3.937 3.937 0 0 0 3.313-4.466z"/></svg>